<svg xmlns="http://www.w3.org/2000/svg" viewBox="80 44 252 224">
  <title>DrFahm</title>
  <defs>
    <linearGradient id="dGreen" x1="0%" y1="0%" x2="100%" y2="100%">
      <stop offset="0%" stop-color="#4ADE80"/>
      <stop offset="100%" stop-color="#16A34A"/>
    </linearGradient>
    <mask id="dMask">
      <rect x="0" y="0" width="400" height="320" fill="white"/>
      <path d="M 98,52 L 248,52 Q 280,52 288,94 Q 294,120 294,152 Q 294,192 279,220 Q 260,256 218,260 L 110,260 L 98,260 Q 88,260 88,250 L 88,62 Q 88,52 98,52 Z" fill="black"/>
    </mask>
  </defs>

  <!-- Navy F (drawn first, masked where the D overlaps) -->
  <g mask="url(#dMask)">
    <rect x="192" y="52" width="38" height="208" rx="10" fill="#1B2B4B"/>
    <path d="M 192,52 L 314,52 Q 324,52 324,62 L 324,90 Q 324,100 314,90 L 192,90 Z" fill="#1B2B4B"/>
    <path d="M 192,134 L 290,134 Q 300,134 300,144 L 300,168 Q 300,178 290,168 L 192,168 Z" fill="#1B2B4B"/>
  </g>

  <!-- Green D (gradient, drawn on top) -->
  <path d="M 98,52 L 248,52 Q 280,52 288,94 Q 294,120 294,152 Q 294,192 279,220 Q 260,256 218,260 L 110,260 L 98,260 Q 88,260 88,250 L 88,62 Q 88,52 98,52 Z" fill="url(#dGreen)"/>

  <!-- D inner cutout — transparent so it works on any background -->
  <path d="M 140,97 L 178,97 Q 212,99 230,128 Q 244,148 244,164 Q 244,188 226,210 Q 204,232 170,234 L 140,234 Z" fill="#FFFFFF"/>
</svg>